<svg width="21" height="19" viewBox="0 0 21 19" fill="none" xmlns="http://www.w3.org/2000/svg">
<g id="Frame">
<path id="Vector" d="M11.3746 0.713523C11.4266 0.655523 11.4076 0.483523 11.4156 0.436523C11.3236 0.606523 11.3776 0.762523 11.3746 0.713523Z" fill="#FBED81"/>
<path id="Vector_2" d="M10.5855 2.32837L10.5225 2.71137L10.5925 2.43037L10.5855 2.32837Z" fill="#FBED81"/>
<path id="Vector_3" d="M10.2698 3.04798L10.3198 3.08398L10.2828 2.72998C10.1218 3.04198 9.99684 3.55298 9.83984 3.66198C10.0738 3.84198 10.0808 3.16098 10.2698 3.04798Z" fill="#FBED81"/>
<path id="Vector_4" d="M9.12047 3.62988C9.10739 3.63318 9.09396 3.63486 9.08047 3.63488C9.05074 3.68308 9.01731 3.72888 8.98047 3.77188C9.09747 3.82888 8.95847 4.02188 9.12047 3.62988Z" fill="#FBED81"/>
<path id="Vector_5" d="M9.07864 3.63504C8.94864 3.64504 9.16664 3.47904 9.07864 3.63504V3.63504Z" fill="#FBED81"/>
<path id="Vector_6" d="M8.71042 4.37954L8.74542 4.09654C8.66742 4.08054 8.54542 4.24854 8.54542 4.14154C8.46642 4.39754 8.55242 4.40454 8.71042 4.37954Z" fill="#FBED81"/>
<path id="Vector_7" d="M8.80376 4.60081C8.77076 4.59581 8.74576 4.61481 8.78376 4.73381L8.80376 4.60081Z" fill="#FBED81"/>
<path id="Vector_8" d="M8.83171 4.47745C8.89371 4.56545 8.84771 4.45645 8.85171 4.31445L8.80371 4.60145C8.85571 4.61045 8.93871 4.68645 8.83171 4.47745Z" fill="#FBED81"/>
<path id="Vector_9" d="M9.14901 4.35255C9.32501 3.96355 9.14901 3.82455 8.95801 4.22955C9.07301 4.17855 9.18001 4.08055 9.14901 4.35255Z" fill="#FBED81"/>
<path id="Vector_10" d="M9.98557 4.02483L10.1036 3.98583V3.77783C10.1056 3.88483 9.92657 3.94183 9.98557 4.02483Z" fill="#FBED81"/>
<path id="Vector_11" d="M8.16479 5.58887V5.86787C8.27079 5.68287 8.24079 5.61987 8.16479 5.58887Z" fill="#FBED81"/>
<path id="Vector_12" d="M9.0427 5.02186C9.03736 4.85386 9.03736 4.68186 9.0427 4.50586C9.0267 4.70586 9.0167 4.89786 9.0127 5.08686L9.0427 5.02186Z" fill="#FBED81"/>
<path id="Vector_13" d="M8.64149 5.20923L8.47949 5.48823L8.55449 5.38823L8.64149 5.20923Z" fill="#FBED81"/>
<path id="Vector_14" d="M8.04588 5.4862C8.02397 5.50477 7.99764 5.51739 7.96944 5.52282C7.94124 5.52825 7.91211 5.52631 7.88487 5.5172C7.93987 5.5682 8.08487 5.5532 8.16787 5.5892L8.17487 5.3982C8.14187 5.4172 8.10287 5.4472 8.06287 5.4742C8.10087 5.3382 7.91887 5.2742 7.98987 5.1792C7.85678 5.2459 7.7462 5.35021 7.67188 5.4792C7.7276 5.44238 7.79318 5.42334 7.85996 5.42459C7.92674 5.42584 7.99157 5.44732 8.04588 5.4862Z" fill="#FBED81"/>
<path id="Vector_15" d="M7.51953 5.658C7.57671 5.60419 7.6277 5.54415 7.67153 5.479C7.60819 5.52663 7.55626 5.58778 7.51953 5.658Z" fill="#FBED81"/>
<path id="Vector_16" d="M7.68359 6.28418L7.90659 6.29218L7.95059 6.21018C7.90342 6.20014 7.85452 6.20163 7.80804 6.21451C7.76156 6.22739 7.71887 6.25129 7.68359 6.28418Z" fill="#FBED81"/>
<path id="Vector_17" d="M7.90452 6.29199L7.85352 6.38199H7.85952L7.91152 6.29599L7.90452 6.29199Z" fill="#FBED81"/>
<path id="Vector_18" d="M7.96095 6.18921L7.94995 6.21021C7.97195 6.21121 7.97995 6.20921 7.96095 6.18921Z" fill="#FBED81"/>
<path id="Vector_19" d="M8.6194 5.43604C8.62407 5.54121 8.64051 5.64552 8.6684 5.74704C8.67324 5.7578 8.67892 5.76817 8.6854 5.77804L8.3674 6.00904C8.3184 5.99104 8.2474 5.98204 8.2314 5.90204V6.10204L7.8584 6.37303V6.37903L8.2354 6.10503V6.20504L8.3844 6.01203L8.3704 6.00704L8.6874 5.77704C8.7224 5.83004 8.7814 5.85003 8.8874 5.79603C8.8154 5.63603 8.6634 5.71704 8.6194 5.43604Z" fill="#FBED81"/>
<path id="Vector_20" d="M8.23981 6.34523V6.20923L8.18481 6.28123L8.23981 6.34523Z" fill="#FBED81"/>
<path id="Vector_21" d="M7.98836 5.95949C7.99636 5.89449 8.03136 5.77249 7.90436 5.79949C7.831 5.88259 7.7302 5.93654 7.62036 5.95149C7.74178 5.97415 7.86608 5.97685 7.98836 5.95949Z" fill="#FBED81"/>
<path id="Vector_22" d="M8.35491 5.78662L8.33691 5.80062C8.35191 5.81562 8.36191 5.81962 8.35491 5.78662Z" fill="#FBED81"/>
<path id="Vector_23" d="M6.52441 6.10452L6.54741 6.13852V6.10352L6.52441 6.10452Z" fill="#FBED81"/>
<path id="Vector_24" d="M8.01299 5.9894C8.11299 6.0154 8.15499 5.9584 8.19699 5.8894C8.13039 5.92106 8.05971 5.94327 7.98699 5.9554C7.98499 5.9854 7.98599 6.0044 8.01299 5.9894Z" fill="#FBED81"/>
<path id="Vector_25" d="M7.22778 5.7967C7.28151 5.832 7.33883 5.8615 7.39878 5.8847C7.34478 5.8277 7.23678 5.7417 7.22778 5.7967Z" fill="#FBED81"/>
<path id="Vector_26" d="M8.29775 5.74962L8.30974 5.73862C8.27474 5.69962 8.28075 5.72062 8.29775 5.74962Z" fill="#FBED81"/>
<path id="Vector_27" d="M8.29824 5.74951C8.25795 5.79079 8.22422 5.83801 8.19824 5.88951C8.24892 5.86726 8.29582 5.83723 8.33724 5.80051C8.32219 5.78519 8.30909 5.76806 8.29824 5.74951Z" fill="#FBED81"/>
<path id="Vector_28" d="M6.9429 6.10147L7.0239 6.06547C6.89728 6.02585 6.78342 5.95339 6.6939 5.85547C6.5659 5.96747 6.5469 6.04047 6.5459 6.10447L6.9669 6.06947L6.9429 6.10147Z" fill="#FBED81"/>
<path id="Vector_29" d="M7.40539 6.0096C7.36839 6.2226 7.17739 6.3386 7.33439 6.5396C7.58139 6.4896 7.48439 6.3446 7.62039 6.2396C7.22539 6.3486 7.72039 6.1096 7.41239 6.0396C7.47743 6.00077 7.54786 5.97179 7.62139 5.9536C7.54588 5.94017 7.47187 5.91941 7.40039 5.8916L7.41139 5.9026C7.43239 5.9256 7.44039 5.9406 7.41939 5.9286C7.41939 5.9286 7.41339 5.9286 7.41139 5.9336C7.41234 5.96012 7.40999 5.98666 7.40439 6.0126C7.28239 5.9876 7.37839 5.9636 7.41139 5.9336V5.9026L7.02539 6.0716C7.15502 6.07812 7.28455 6.05699 7.40539 6.0096Z" fill="#FBED81"/>
<path id="Vector_30" d="M9.14756 6.25033C9.1311 6.25091 9.11491 6.24599 9.10156 6.23633C9.11056 6.27433 9.12056 6.29233 9.14756 6.25033Z" fill="#FBED81"/>
<path id="Vector_31" d="M8.49063 6.28905L8.44263 6.27905C8.44463 6.28805 8.46363 6.29005 8.49063 6.28905Z" fill="#FBED81"/>
<path id="Vector_32" d="M8.49048 6.28825C8.6464 6.32684 8.80697 6.34334 8.96748 6.33725C8.95648 6.29525 8.89848 6.22925 8.96148 6.15025C9.05148 6.10525 9.04348 6.20425 9.10248 6.23625C9.08248 6.15525 9.07448 5.96525 8.90248 6.08225L8.91248 6.12425C8.78729 6.21252 8.64242 6.26882 8.49048 6.28825Z" fill="#FBED81"/>
<path id="Vector_33" d="M8.39229 6.375L8.07129 6.523L8.27129 6.674L8.24729 6.574C8.44029 6.583 8.38029 6.459 8.39229 6.375Z" fill="#FBED81"/>
<path id="Vector_34" d="M6.48301 5.78857L6.33301 6.11957L6.46901 6.00957L6.48301 5.78857Z" fill="#FBED81"/>
<path id="Vector_35" d="M6.02969 5.91064L5.92969 6.03964L6.03969 6.09864L6.02969 5.91064Z" fill="#FBED81"/>
<path id="Vector_36" d="M5.53712 13.8568L5.74812 13.8478C5.73905 13.8057 5.7408 13.7619 5.75322 13.7207C5.76563 13.6794 5.78831 13.6419 5.81912 13.6118C5.62112 13.7208 5.32512 13.8388 5.53712 13.8568Z" fill="#FBED81"/>
<path id="Vector_37" d="M3.60742 9.60353C3.62833 9.7152 3.67527 9.82038 3.74442 9.91053C3.71842 9.72053 3.75542 9.50853 3.60742 9.60353Z" fill="#FBED81"/>
<path id="Vector_38" d="M14.9463 17.6818C14.973 17.6836 14.9997 17.6779 15.0234 17.6654C15.0471 17.6529 15.0668 17.634 15.0803 17.6108C15.0083 17.6128 14.9583 17.6308 14.9463 17.6818Z" fill="#FBED81"/>
<path id="Vector_39" d="M4.00314 10.1622C4.00314 10.1322 3.99314 10.1102 3.99014 10.0812C3.895 10.0459 3.81036 9.98704 3.74414 9.91016C3.76314 10.0512 3.81514 10.1792 4.00314 10.1622Z" fill="#FBED81"/>
<path id="Vector_40" d="M12.2508 2.15474C12.2271 2.09839 12.1896 2.04888 12.1418 2.01074C12.1821 2.05566 12.2185 2.10382 12.2508 2.15474Z" fill="#FBED81"/>
<path id="Vector_41" d="M4.27637 6.25925C4.28737 6.23425 4.36637 6.23225 4.27637 6.25925V6.25925Z" fill="#FBED81"/>
<path id="Vector_42" d="M4.42876 6.33597C4.38886 6.31526 4.34603 6.30076 4.30176 6.29297C4.34197 6.31294 4.38469 6.3274 4.42876 6.33597Z" fill="#FBED81"/>
<path id="Vector_43" d="M4.39551 6.24324L4.47951 6.25124C4.48551 6.21524 4.47251 6.19224 4.39551 6.24324Z" fill="#FBED81"/>
<path id="Vector_44" d="M4.14941 6.29414C4.19964 6.28464 4.25119 6.28464 4.30141 6.29414C4.28141 6.28314 4.27241 6.27214 4.27641 6.26514L4.14941 6.29414Z" fill="#FBED81"/>
<path id="Vector_45" d="M19.7552 8.16687C19.8299 8.18859 19.9093 8.18859 19.984 8.16687L20.7422 7.96709L19.6343 7.09005C19.2557 6.79038 18.3356 6.8673 18.2148 6.72046C18.0935 6.78689 17.9594 6.82653 17.8216 6.8367C17.6837 6.84687 17.5452 6.82733 17.4156 6.7794C17.4805 6.84632 17.4795 7.15798 17.2318 7.07907C17.4166 6.46274 16.8072 6.73844 16.6683 6.25497C16.8072 6.58261 15.9361 6.22401 16.1618 6.69349C15.962 6.61158 16.1838 6.45575 16.0449 6.28394C15.5065 6.45475 14.959 5.96429 14.3247 5.9563C14.3117 6.00625 14.3337 6.07917 14.3247 6.15608C14.3187 6.15608 14.3127 6.15608 14.3057 6.14709C14.1184 5.44805 13.7978 4.79174 13.3616 4.21422C12.9165 3.54555 12.5734 2.81433 12.3437 2.04461C12.4106 2.36226 12.3317 2.26936 12.2507 2.15349C12.2927 2.27036 12.1988 2.35327 12.1808 2.47713C12.1089 2.21076 12.0276 1.94671 11.9371 1.685C11.8372 1.90776 11.5994 1.19354 11.5534 1.44427L11.6474 1.54416C11.5923 1.78377 11.5923 2.03274 11.6474 2.27236L11.4216 1.81386L8.9101 6.90226L7.21879 7.14799C7.23026 7.14676 7.2409 7.14144 7.24876 7.13301L7.22579 7.03312C7.1189 7.05509 7.05696 7.13301 7.12589 7.16597L6.82619 7.20992C6.98303 7.02513 6.77124 6.45575 6.55246 6.14609C6.55846 6.228 6.56945 6.30292 6.37864 6.44576C6.46555 6.53666 6.87014 6.61757 6.72129 6.81136C6.46255 6.94721 6.48753 6.7784 6.34068 6.69848C6.47055 6.88927 6.14088 7.0471 6.14088 7.31281L4.48054 7.55454C4.48443 7.53969 4.48446 7.52409 4.48061 7.50923C4.47676 7.49436 4.46917 7.48073 4.45856 7.46964L4.31071 7.52757C4.13988 7.34477 4.55846 7.20393 4.35067 7.137C4.53649 6.96319 4.73429 6.70448 5.04098 6.7774L5.14088 7.05809C5.12769 7.03374 5.10905 7.01278 5.08641 6.99682C5.06378 6.98086 5.03777 6.97034 5.01041 6.96609C4.98305 6.96184 4.95507 6.96396 4.92866 6.97229C4.90225 6.98063 4.87813 6.99495 4.85816 7.01414C4.95806 6.8683 5.35766 7.33978 5.43758 6.94321L5.20482 6.7734C5.39063 6.5976 5.60441 6.25497 5.87314 6.30891C5.7143 6.04121 5.8182 6.34987 5.58743 6.04321C5.80621 6.43477 4.92709 6.12212 5.24478 6.51968C5.00102 6.16008 4.89612 6.40281 4.60342 6.10913C4.6244 6.20303 4.7163 6.27795 4.49353 6.26296C4.48575 6.29462 4.474 6.32516 4.45856 6.35386H4.44258L4.45657 6.36385C4.44857 6.37984 4.44857 6.38183 4.45657 6.36385C4.51135 6.39376 4.55668 6.4384 4.58743 6.49271C4.51151 6.72645 4.16686 6.76941 4.06796 6.90026C3.93309 6.87329 4.10592 6.78339 4.021 6.69149L3.87215 6.88628C3.8242 6.67851 3.48054 6.58661 3.76426 6.41679L3.49153 6.44676C3.37281 6.38047 3.23506 6.35652 3.10092 6.37884L0.313721 6.99416L2.34368 8.70827C2.3821 8.74205 2.42853 8.76544 2.47855 8.7762C2.53949 8.90006 2.87815 8.83513 2.67835 8.87609L3.07795 9.08186L3.04298 9.12282C3.3287 9.43847 3.91611 9.48042 3.99503 10.0947C4.16943 10.151 4.31837 10.2671 4.41561 10.4224L4.31571 10.5872C4.49153 10.6691 4.58144 11.1046 4.77225 11.0217C4.57245 11.5162 5.33468 11.721 5.50451 12.0096L5.68134 11.8458C5.79271 11.9579 5.92289 12.0495 6.06595 12.1165C5.91111 12.4801 6.35866 12.9646 6.015 13.2493C6.0405 13.2876 6.05017 13.3342 6.04197 13.3795C6.03377 13.4248 6.00835 13.4651 5.97105 13.492C5.97156 13.4825 5.96912 13.4731 5.96405 13.465C5.95935 13.4783 5.956 13.492 5.95406 13.506C5.91111 13.544 5.86116 13.5819 5.8182 13.6259C5.86792 13.6005 5.91288 13.5667 5.95107 13.526C5.94212 13.6348 5.95227 13.7443 5.98104 13.8496L5.74727 13.8596V13.8876C5.64737 13.9875 5.83818 13.9965 6.019 13.9655C6.04509 14.0297 6.08229 14.0889 6.12889 14.1403C5.74927 14.1703 6.19982 14.4629 5.79023 14.5219C5.96605 14.6318 5.83318 15.1212 6.22179 15.2531C6.16885 15.2531 6.13788 15.278 6.14587 15.2151C6.07794 15.336 6.01101 15.4558 6.10391 15.5897H5.80421L6.14188 15.9353C5.94208 16.0752 5.82419 16.1281 5.63339 15.9213C5.90311 16.3868 5.70431 16.2739 5.98204 16.6775L5.79922 16.6286C5.78523 16.7534 5.99902 16.9942 5.83318 17.0421C5.78275 17.0709 5.73993 17.1113 5.70831 17.16L5.15686 17.9591L6.70831 17.8822C7.15686 17.8602 7.88912 17.2469 8.58542 17.2099C8.20381 16.7844 8.99701 17.2738 8.82319 16.8803C8.92309 16.9802 9.04496 16.9962 8.99401 17.151C9.25975 16.8663 9.57943 17.0781 9.63637 16.6395C9.73627 16.7394 9.65635 16.8453 9.72528 16.8973C9.73827 16.8583 9.77523 16.7414 9.84616 16.7974C9.91709 16.8533 9.84616 16.9202 9.82418 16.9972C10.1469 16.8024 9.99201 16.4278 9.84017 16.0792C10.0929 16.1491 10.1648 16.0792 10.1708 15.7985C10.2877 15.8774 10.4456 15.9403 10.2587 16.0892C10.3836 16.0442 11.0579 15.8764 10.9241 15.6017C10.996 15.6506 11.0969 15.5358 11.1109 15.4888C11.2543 15.4329 11.3947 15.3696 11.5315 15.299C11.8142 15.6486 11.7602 15.2581 12.0669 15.7395L12.1479 15.5238C12.4196 15.1132 12.4276 15.9973 12.7852 15.9743L12.7482 15.8075C12.974 15.7375 12.8481 16.6156 12.972 16.7474C12.985 16.8024 12.8891 16.7814 12.8292 16.7854C13.0839 17.2459 13.018 16.5476 13.3407 16.6395C13.3197 16.8104 13.0809 16.9662 13.2627 17.095C13.2997 17.2609 14.0729 16.9292 14.1958 17.3438C14.1958 17.2029 14.1958 17.0621 14.3726 17.0511C14.5994 17.121 14.7133 17.7593 15.0819 17.5116C15.0918 17.5467 15.089 17.5842 15.0739 17.6175C15.2787 17.6105 15.6653 17.7383 15.8591 17.6005C15.7862 17.8562 15.8881 17.9621 16.0449 18.013L17.7642 18.5674L17.2527 17.136C17.1408 16.8223 16.7113 16.4667 17.1908 16.3868L17.0599 15.8524H17.1358C17.1382 15.7311 17.1002 15.6125 17.0279 15.515C16.9556 15.4176 16.853 15.3469 16.7362 15.314C16.7712 15.2251 16.8481 15.273 16.8871 15.273C16.945 14.7436 16.9061 14.6977 16.4765 14.3351L16.7013 14.2512C16.5464 14.1593 16.94 13.458 16.5844 13.0095C16.6256 13.0075 16.6661 13.0207 16.6983 13.0465C16.3626 12.581 16.98 11.7659 16.4276 11.5801C16.5534 11.4862 16.6733 11.3803 16.7722 11.4902C17.4375 10.811 18.2707 10.3415 18.9241 9.73414L18.6084 9.55734L18.8441 9.35756C18.959 9.35756 19.1129 9.47543 18.944 9.62027C19.1648 9.6802 19.0949 9.24268 19.0439 9.18375C19.4525 8.98397 19.2058 9.5923 19.3067 9.5054L19.4176 9.36056H19.3596C19.3656 9.16078 19.2697 9.03991 19.4715 8.8611C19.6413 8.79318 19.6833 8.955 19.7402 8.91804C19.7572 8.93602 19.7812 8.92903 19.8202 8.85411L20.1199 8.60239L19.8202 8.51449C19.8581 8.29273 20.1019 8.26376 19.7552 8.16687ZM6.5115 12.587L6.67834 12.5391L6.55346 12.2114C6.7123 12.3193 6.94207 12.5031 7.17584 12.7029L7.09192 13.1943C6.84713 13.048 6.64655 12.8382 6.5115 12.587ZM6.38263 10.8889C6.39348 10.8526 6.41111 10.8187 6.43458 10.789L6.67234 11.0217L6.42459 11.2854L6.70531 11.0547L6.93908 11.2814C6.80784 11.4241 6.66145 11.5521 6.50251 11.663L6.45956 11.5292L6.43059 11.5831C6.38184 11.3541 6.36569 11.1194 6.38263 10.8859V10.8889ZM14.3207 6.17306C14.3156 6.19706 14.3058 6.21982 14.2919 6.24005C14.2781 6.26027 14.2603 6.27756 14.2398 6.29093L14.0609 5.98427L14.3207 6.17306ZM6.79122 7.20892L6.44157 7.25987C6.46078 7.23325 6.48508 7.21071 6.51307 7.19356C6.54106 7.17642 6.57218 7.165 6.60462 7.15999C6.63706 7.15497 6.67017 7.15644 6.70203 7.16433C6.7339 7.17222 6.76387 7.18636 6.79023 7.20593L6.79122 7.20892ZM6.36965 7.25687V7.27085H6.34567L6.36965 7.25687ZM3.29273 6.5976L3.28674 6.60958C3.1229 6.54066 3.18084 6.56863 3.29173 6.5956L3.29273 6.5976ZM3.68034 8.92903C3.36866 8.76321 3.75627 8.64035 3.67435 8.64035C3.31171 8.19983 2.89913 8.64035 2.68834 8.33468L1.61841 6.7734L3.16586 6.8643C3.21966 6.86896 3.27249 6.88141 3.3227 6.90126C3.56746 7.12402 3.40462 7.40071 3.47755 7.57852C3.41652 7.61172 3.34686 7.62566 3.27775 7.61847L3.10692 7.60049L3.2228 7.78829C3.30772 7.92513 3.29773 8.09894 3.39863 8.18785L3.31771 7.94012C3.44058 7.94012 3.61741 8.02303 3.63739 8.14589C3.63925 8.10619 3.631 8.06666 3.61341 8.03102L4.54348 8.93702C4.26294 9.03365 3.95758 9.03012 3.67934 8.92703L3.68034 8.92903ZM5.44058 10.1047C5.4934 10.0552 5.53203 9.99242 5.55247 9.92294L5.75227 10.1147C5.64791 10.1358 5.54002 10.1317 5.43758 10.1027L5.44058 10.1047ZM6.60541 16.0352L6.56645 16.265L6.18883 15.9653C6.32429 16.0038 6.46374 16.0266 6.60441 16.0332L6.60541 16.0352ZM9.83317 15.8794C9.77024 15.8564 9.75525 15.7465 9.75026 15.6057C9.73937 15.6384 9.73037 15.6718 9.72328 15.7056C9.69397 15.6986 9.66662 15.6851 9.64326 15.6661C9.61991 15.6471 9.60116 15.623 9.58842 15.5957L9.74726 15.5118V15.6117L9.78722 15.4928L9.85915 15.4548C9.93241 15.497 10.0081 15.5347 10.0859 15.5677L9.83317 15.8794ZM17.0379 16.1341C16.994 16.1685 16.9573 16.2113 16.9301 16.26L16.9161 16.222L17.0379 16.1341ZM16.0389 12.2554L16.022 12.2244L16.1418 11.8129C15.7502 12.1025 15.9341 11.4962 15.6923 11.5332C15.7922 11.3644 16.2248 11.3763 16.0919 11.5701L16.035 11.5651C16.0519 11.6019 16.0795 11.6327 16.1143 11.6534C16.1491 11.6741 16.1894 11.6837 16.2298 11.681L16.0389 12.2554ZM19.6283 8.83014C19.6813 8.6853 19.6953 8.75622 19.7143 8.83014H19.6283Z" fill="#FBED81"/>
<path id="Vector_46" d="M5.21639 6.02246L5.02539 6.11146C5.05882 6.10372 5.09363 6.10412 5.12687 6.11265C5.16011 6.12118 5.19082 6.13758 5.21639 6.16046C5.20439 6.10446 5.15439 6.03546 5.21639 6.02246Z" fill="#FBED81"/>
<path id="Vector_47" d="M5.78074 6.8027C5.78074 6.5297 5.64674 6.6387 5.51074 6.7487C5.55474 6.9377 5.67074 6.8547 5.80574 6.7987C5.7977 6.80146 5.78924 6.80281 5.78074 6.8027Z" fill="#FBED81"/>
<path id="Vector_48" d="M5.96616 6.76459C5.96616 6.65559 5.91016 6.74959 5.83716 6.78759C5.8781 6.77105 5.92203 6.76322 5.96616 6.76459Z" fill="#FBED81"/>
<path id="Vector_49" d="M3.99545 6.46423C4.06945 6.50323 4.00145 6.21423 4.05045 6.28623C4.08945 6.03223 3.65045 6.64523 3.99545 6.46423Z" fill="#FBED81"/>
<path id="Vector_50" d="M5.71608 7.3623L5.63108 7.1333L5.58008 7.3333L5.71608 7.3623Z" fill="#FBED81"/>
<path id="Vector_51" d="M4.5851 7.34897L4.8191 7.38197C4.8101 7.34297 4.8351 7.31597 4.8681 7.29297C4.7281 7.29997 4.5691 7.27997 4.5851 7.34897Z" fill="#FBED81"/>
<path id="Vector_52" d="M4.86621 7.29403C4.93098 7.29603 4.9939 7.2723 5.04121 7.22803C4.97935 7.23921 4.92005 7.26157 4.86621 7.29403Z" fill="#FBED81"/>
<path id="Vector_53" d="M4.11602 8.59754C4.03402 8.59754 3.94602 8.55554 3.91602 8.63854L4.14102 8.76254C4.21802 8.72154 4.20402 8.63854 4.11602 8.59754Z" fill="#FBED81"/>
<path id="Vector_54" d="M11.7449 1.11624L11.6299 0.844238L11.6979 1.11724L11.7449 1.11624Z" fill="#FBED81"/>
<path id="Vector_55" d="M11.506 1.14832L11.486 0.799316L11.416 0.977316C11.4647 1.02235 11.4964 1.0827 11.506 1.14832Z" fill="#FBED81"/>
</g>
</svg>
